<?xml version="1.0" encoding="utf-8"?>
<!-- Generator: Adobe Illustrator 19.0.0, SVG Export Plug-In . SVG Version: 6.00 Build 0)  -->
<svg version="1.1" id="Layer_1" xmlns="http://www.w3.org/2000/svg" xmlns:xlink="http://www.w3.org/1999/xlink" x="0px" y="0px"
	 viewBox="0 0 512 512" style="enable-background:new 0 0 512 512;" xml:space="preserve">
<style type="text/css">
	.st0{fill:#282828;}
	.st1{fill:#0768B2;}
	.st2{fill:#397ABE;}
	.st3{fill:#FFFFFF;stroke:#000000;stroke-miterlimit:10;}
	.st4{fill:#1D254C;}
	.st5{fill:#231F20;}
	.st6{fill:#5E5F5F;}
	.st7{fill:#474748;}
	.st8{fill:#ABABAB;}
	.st9{fill:#224086;}
	.st10{fill:#232E54;}
	.st11{fill:#2A3A68;}
	.st12{fill:#2C2B6E;}
</style>
<g id="XMLID_606_">
	<g id="XMLID_611_">
		<path id="XMLID_413_" class="st0" d="M191.8,413.3c-22.9,7.7-41.4-13.5-45.9-18.4c-6.1-14.7-17.7-61.5-26.3-95.6
			c-8.5-34.1-26.1-42.3-25.5-43.9c0.6-1.5,7-10.5,7-10.5L50.5,122.1c0,0-12.2-4.4-16-8.4c-3.8-4-13.4-39.9-13.4-39.9
			s22.4-9.9,26.8-11c0.2,5.1,20.4,29.4,20.8,33.9c0.4,4.5-5.3,18.3-5.3,18.3l62,117.9l9.3,0.9c0,0,2.5,4.7,1.6,15.1
			c-0.8,10.4,4.9,19.1,4.9,19.1s6.1,12,7.2,14.6c1.1,2.6,56.3,74.5,61,84.4C214.1,376.8,214.7,405.5,191.8,413.3z"/>
	</g>
	<g id="XMLID_610_">
	</g>
</g>
<g id="XMLID_408_">
	<g id="XMLID_409_">
		<g id="XMLID_613_">
			<path id="XMLID_421_" class="st0" d="M500.5,71.9c3.6,8.1,5,17.1,4.4,25.9c-0.7,8.8-3.3,17.5-7.7,25.1c-2.2,3.8-4.9,7.4-8.1,10.4
				c-0.8,0.7-1.7,1.5-2.5,2.1c-0.9,0.6-1.8,1.3-2.7,1.9c-1.8,1.3-3.7,2.5-5.4,3.8c-7,5.3-13.4,11.5-18.8,18.5
				c-2.7,3.5-5.1,7.2-7,11.2c-1.7,4-3.4,8.1-5.1,12.2L427.2,232c-13.5,32.6-27.1,65.2-40.5,97.8c-3.3,8.2-6.7,16.3-9.9,24.5
				c-1.6,4.1-3.6,8.1-6.3,11.6l-1,1.3c-0.4,0.4-0.8,0.8-1.1,1.2c-0.4,0.4-0.7,0.8-1.2,1.2l-1.3,1.1c-0.4,0.4-0.9,0.7-1.3,1
				c-0.5,0.3-0.9,0.6-1.4,0.9c-1,0.5-2,1-3,1.3c-4.1,1.5-8.9,1.3-12.9-0.7c-3.9-2.1-7.4-5.1-9.4-9.1c-2.1-4-2.3-8.6-1.4-12.9
				c0.9-4.3,2.7-8.4,5.2-12.1l70.7-170.1l-70.7,170.1c-1.2,1.8-2.3,3.8-3.2,5.8c-0.9,2-1.6,4.1-2,6.3c-0.9,4.3-0.7,8.9,1.4,12.9
				c2,3.9,5.5,7,9.3,9c3.9,2,8.7,2.3,12.8,0.7c1.1-0.3,2-0.9,3-1.3c0.5-0.3,0.9-0.6,1.4-0.9c0.5-0.3,0.9-0.6,1.3-1l1.3-1.1
				c0.4-0.3,0.8-0.8,1.2-1.2c0.4-0.4,0.8-0.8,1.1-1.2l1-1.3c2.7-3.5,4.6-7.5,6.2-11.6c3.2-8.2,6.6-16.4,9.9-24.5
				c13.4-32.7,26.9-65.3,40.4-97.9l20.3-48.9c1.7-4.1,3.4-8.2,5.1-12.2c1.9-4,4.4-7.7,7-11.2c5.3-7,11.7-13.2,18.8-18.6
				c1.7-1.4,3.6-2.6,5.4-3.9c0.9-0.6,1.8-1.3,2.7-1.9c0.9-0.7,1.7-1.4,2.5-2.1c3.2-3,5.9-6.6,8.1-10.4c4.4-7.6,7-16.3,7.7-25.1
				c0.6-8.8-0.8-17.7-4.4-25.8c-1.8-4-4.2-7.8-6.9-11.2c-0.7-0.9-1.4-1.7-2.2-2.5c-0.8-0.8-1.5-1.6-2.3-2.4l-2.5-2.2
				c-0.8-0.8-1.7-1.4-2.6-2.1c-5.9-4.5-12.5-7.9-19.4-10.3l-0.1-0.2l-0.1,0.1c0.1,0,0.1,0.1,0.2,0.1l12.7,42.7l0,0l0,0l-20.8,29.8
				l0,0.1l-0.1,0l-33.6-13.1l0,0l0,0l-12.9-42.9c0,0,0,0,0.1-0.1l-0.1,0l0,0.1c-2.2,2.2-4.1,4.6-5.8,7.2c-1.7,2.6-3.2,5.3-4.5,8.2
				c-2.5,5.7-3.9,11.9-4.1,18.2c-0.1,3.1,0.1,6.3,0.6,9.3c0.1,0.8,0.3,1.5,0.4,2.3c0.2,0.8,0.3,1.5,0.5,2.3c0.4,1.5,0.8,3,1.4,4.5
				c2,5.9,5,11.5,8.5,16.6c1.4,3.4,2.9,6.8,4.4,10.2c1.5,3.4,2.8,6.9,3.5,10.5c0.7,3.6,0.8,7.4,0.3,11.1c-0.1,0.5-0.1,0.9-0.2,1.4
				c0.1-0.5,0.1-0.9,0.2-1.4c0.5-3.7,0.4-7.4-0.3-11.1c-0.7-3.6-2.1-7.1-3.5-10.5s-3-6.8-4.4-10.2c-1.8-2.6-3.4-5.3-4.8-8.1
				c-1.4-2.8-2.7-5.7-3.7-8.6c-0.6-1.5-0.9-3-1.4-4.5c-0.2-0.8-0.4-1.5-0.5-2.3c-0.2-0.8-0.3-1.5-0.4-2.3c-0.6-3.1-0.7-6.2-0.7-9.3
				c0.1-6.2,1.6-12.4,4.1-18.2c1.2-2.9,2.7-5.6,4.5-8.2s3.7-5.1,5.9-7.3l0.1-0.1l0,0.1l13,43l0,0l0,0l0,0l33.5,13.1l0,0l0.1,0
				l-0.1,0l20.7-29.7l0,0l0-0.1l0,0l-12.8-42.9L464,41l0.2,0.1c7,2.5,13.8,5.9,19.7,10.4c0.9,0.7,1.8,1.3,2.6,2.1l2.5,2.2
				c0.8,0.8,1.5,1.6,2.3,2.4c0.8,0.8,1.5,1.6,2.2,2.5C496.3,64.1,498.7,67.8,500.5,71.9z"/>
			<path id="XMLID_420_" class="st0" d="M500.2,72c3.6,8,5,17,4.4,25.8c-0.7,8.8-3.3,17.4-7.7,25.1c-2.2,3.8-4.9,7.3-8.1,10.4
				c-0.8,0.7-1.6,1.5-2.5,2.1c-0.9,0.6-1.8,1.3-2.7,1.9c-1.8,1.3-3.7,2.5-5.4,3.9c-7,5.3-13.4,11.5-18.8,18.6
				c-2.7,3.5-5.1,7.2-7,11.2c-1.7,4.1-3.4,8.1-5.1,12.2L427.1,232c-13.5,32.6-27,65.2-40.4,97.9c-3.3,8.2-6.7,16.3-9.9,24.5
				c-1.6,4.1-3.5,8.1-6.2,11.6l-1,1.3c-0.4,0.4-0.8,0.8-1.1,1.2c-0.4,0.4-0.7,0.8-1.2,1.2l-1.3,1.1c-0.4,0.4-0.9,0.7-1.3,1
				c-0.5,0.3-0.9,0.6-1.4,0.9c-1,0.5-2,1-3,1.3c-4.1,1.5-8.9,1.3-12.8-0.7c-3.9-2.1-7.3-5.1-9.3-9c-2.1-3.9-2.3-8.6-1.4-12.9
				c0.4-2.2,1.1-4.3,2-6.3c0.9-2,1.9-4,3.2-5.8l70.7-170.1c0.3-0.9,0.5-1.8,0.8-2.7c0,0,0,0,0,0c0.1-0.5,0.2-0.9,0.4-1.3
				c0.2-0.9,0.4-1.8,0.6-2.7c0.2-0.9,0.4-1.8,0.5-2.7c0,0,0,0,0,0c0.1-0.5,0.1-0.9,0.2-1.4c0.5-3.7,0.4-7.4-0.3-11.1
				c-0.7-3.6-2.1-7.1-3.5-10.5c-1.5-3.4-3-6.8-4.4-10.2c-3.5-5.2-6.4-10.8-8.5-16.6c-0.6-1.5-0.9-3-1.4-4.5
				c-0.2-0.8-0.3-1.5-0.5-2.3c-0.2-0.8-0.3-1.5-0.4-2.3c-0.5-3.1-0.7-6.2-0.6-9.3c0.1-6.2,1.6-12.4,4.1-18.2
				c1.2-2.9,2.7-5.6,4.5-8.2c1.7-2.6,3.6-5,5.8-7.2l12.9,42.9l0,0l0,0l33.6,13.1l0.1,0l0-0.1l20.8-29.8l0,0l0,0l-12.7-42.7
				c6.9,2.5,13.6,5.9,19.4,10.3c0.9,0.7,1.8,1.3,2.6,2.1l2.5,2.2c0.8,0.8,1.5,1.6,2.3,2.4c0.8,0.8,1.5,1.6,2.2,2.5
				C496.1,64.2,498.5,68,500.2,72z"/>
			<path id="XMLID_419_" class="st0" d="M464.3,41.1l0.1,0.2c-0.1,0-0.1-0.1-0.2-0.1L464.3,41.1z"/>
			<polygon id="XMLID_418_" class="st0" points="476.9,84 476.9,84.1 476.9,84.1 			"/>
			<polygon id="XMLID_417_" class="st0" points="456.2,113.8 456.1,113.8 456.1,113.8 			"/>
			<polygon id="XMLID_416_" class="st0" points="422.6,100.7 422.6,100.7 422.6,100.7 			"/>
			<path id="XMLID_415_" class="st0" d="M409.6,57.8C409.6,57.8,409.6,57.8,409.6,57.8L409.6,57.8L409.6,57.8z"/>
			<path id="XMLID_414_" class="st0" d="M414.7,159.6c-0.1,0.9-0.3,1.8-0.5,2.7C414.4,161.4,414.5,160.5,414.7,159.6z"/>
		</g>
		<g id="XMLID_612_">
		</g>
	</g>
</g>
<g id="XMLID_393_">
	<g id="XMLID_394_">
		<g id="XMLID_401_">
			<path id="XMLID_402_" d="M354.5,112.2c47.4,31.7,78.7,85.7,78.7,146.8c0,97.3-79.2,176.5-176.5,176.5c-44.9,0-85.9-16.8-117-44.5
				c0.3,0,0.6-0.1,0.9-0.1c0.2,0.2,0.5,0.5,0.8,0.7c30.9,27.1,71.2,43.5,115.4,43.5c96.6,0,175.2-78.6,175.2-175.2
				c0-60.5-30.8-113.9-77.5-145.4c0,0-0.1,0-0.1-0.1C354.3,113.6,354.4,112.9,354.5,112.2z"/>
			<path id="XMLID_403_" class="st1" d="M354.3,114.4c46.7,31.5,77.5,84.9,77.5,145.4c0,96.6-78.6,175.2-175.2,175.2
				c-44.1,0-84.5-16.4-115.4-43.5c52-8.3,101.2-40.7,136.1-81.3C325,254.8,346,185.2,354.3,114.4z"/>
			<path id="XMLID_404_" d="M354.5,112.2c-0.1,0.7-0.2,1.4-0.2,2.2c-27.9-18.8-61.5-29.8-97.6-29.8c-96.6,0-175.2,78.6-175.2,175.2
				c0,52.1,22.9,98.9,59.1,131.1c-0.3,0.1-0.6,0.1-0.9,0.1c-36.5-32.4-59.5-79.5-59.5-132c0-97.3,79.2-176.5,176.5-176.5
				C292.8,82.5,326.5,93.4,354.5,112.2z"/>
			<path id="XMLID_405_" d="M354.3,114.4c-8.3,70.8-29.4,140.4-77,195.8c-34.9,40.6-84.1,73-136.1,81.3c-0.3-0.2-0.5-0.5-0.8-0.7
				c52.2-8.1,101.7-40.6,136.8-81.4C324.8,254.2,345.9,184.9,354.3,114.4C354.3,114.4,354.3,114.4,354.3,114.4z"/>
			<path id="XMLID_406_" class="st2" d="M354.3,114.4c-8.4,70.6-29.5,139.9-76.9,195.1c-35.1,40.8-84.6,73.4-136.8,81.4
				c-36.2-32.1-59.1-79-59.1-131.1c0-96.6,78.6-175.2,175.2-175.2C292.8,84.6,326.4,95.6,354.3,114.4z"/>
		</g>
		<g id="XMLID_407_">
		</g>
	</g>
</g>
<g id="XMLID_422_">
	<path id="XMLID_601_" class="st3" d="M114.5,153.1c0-6.7,0.2-14.3,0.2-20.7c14.3,0,35.6,0,51.4,0c6.1,18.4,19.7,63,29.1,94.1h1.6
		c9.8-31,21.3-67.8,29.7-94.1c14.3,0,33.8,0,47.5,0c0,6.4-0.2,14-0.2,20.7l-10.2,0.7c-0.4,0-0.6,0.5-0.6,0.9
		c0.2,32.9,0.2,72.4,0.4,107.2l11.3,0.7c0,6,0,13.1-0.2,19.3c-6.8,0-16.8,0-24.4,0c-10,0-21.5,0-30.1,0c0-6.2,0.2-13.3,0.2-19.3
		l11.7-0.7c0.6,0,0.6-0.5,0.6-0.9c-0.2-24.1-0.4-49.7-0.8-77.5H230c-12.5,40-23.1,68.1-31.5,89.9c-3.1,0-11.5,0.2-17.8,0.2
		c-9.4-25.1-18.6-52.2-30.7-93.1h-1.8c-0.4,28.5-1,54.5-1.4,81.2l14.3,0.9c0,6,0,13.1-0.2,19.3c-7.4,0-17.8,0-26.4,0
		c-7.6,0-14.1,0-20.9,0c0-6.2,0-13.3,0-19.3l10.7-0.7c0.4-0.2,0.6-0.5,0.6-0.9c0.2-32.9,0.6-74.7,1-107.2L114.5,153.1z"/>
	<path id="XMLID_603_" class="st3" d="M321.4,148.3c13.9-12.2,32.2-18.2,50.4-18.2c12.7,0,21.9,1.4,27,3.5c1.2,15.4,2.3,31,3.1,46.9
		c-6.8,1.1-14.1,2.3-21.5,3.2l-4.9-24.1c-0.2-0.9-0.4-2.3-1.2-2.8c-2.3-1.6-5.3-3-9.6-3c-6.6,0-13.7,3-19.5,9.7
		c-9,10.6-13.9,25.8-13.9,45.1c0,19.8,3.7,32.7,11.9,40.9c6.1,6.4,15.8,9.4,24,9.4c9.2,0,25-3.5,31.7-6.4c1.6,6.7,2.9,15.2,3.7,21.4
		c-13.1,5.8-32.2,10.3-42.6,10.3c-15.8,0-31.7-3.9-43.6-13.6c-12.9-10.6-23.1-30.4-23.1-54.5C293.1,183.4,306.2,161.6,321.4,148.3z"
		/>
</g>
<g id="XMLID_425_">
	<g id="XMLID_426_">
		<g id="XMLID_498_">
			<path id="XMLID_499_" class="st4" d="M477.6,181.9C477.6,181.9,477.6,181.9,477.6,181.9C477.6,181.9,477.6,181.8,477.6,181.9
				c0-0.1,0-0.1,0.1,0c0,0,0.1,0,0.1,0c0,0,0.1,0,0.1,0c0.9,0.2,3.2,0.7,5.5,1.3c2.9,0.7,5.8,1.6,5.8,1.6s5.8,1.5,11.6,3.4
				c4.6,1.5,9.2,3.2,10.9,3.9c0.2,0.1,0.3,0.1,0.4,0.2c0.1,0,0.1,0,0.2,0.1c0,0,0.1,0,0.1,0s0,0,0,0.1c0,0.1-0.1,0.3-0.2,0.5
				c-0.3,0.7-0.8,1.8-1.5,3.2c-1.1,2.3-2.5,5.3-3.9,8.4c-1.4,3-2.8,6.1-3.8,8.4c-1,2.4-1.7,4-1.7,4s-1.3,3.3-2.4,6.7
				c-0.9,2.6-1.6,5.3-2,6.5l0-0.1h0c-0.5-0.2-1-0.3-1.5-0.4c-3.6-0.8-7.2-0.4-10.7,1.4c-2,1-3.9,2.5-5.7,4.3
				c-0.9,0.9-1.8,1.9-2.7,2.9c-0.9,1-1.8,2-2.5,3.4c-0.8,1.3-1.4,3-1.6,5c-0.2,2,0.1,4.1,0.6,5.8c1,3.5,2.6,6.3,3.1,10.2
				c0.2,1.9,0,4-0.7,5.4c-0.7,1.5-1.6,2.6-2.4,3.6c-1.7,2.1-3.6,3.7-5.5,5c-3.9,2.6-7.9,4.6-11.8,6.8l-11.8,6.6l-19.8,8.9l21.1-12.7
				l5.6-4c1.9-1.3,3.7-2.7,5.5-4.4c1.8-1.7,3.5-3.7,4.9-6.4c0.7-1.3,1.3-2.9,1.9-4.5c0.5-1.7,0.9-3.5,1.1-5.4l0.1-0.4l-0.2,0.1
				c-1.5,1-3.2-1.3-3.8-4c-0.6-2.9-0.2-6.2,0.6-8.8c1.7-5.3,4.3-9.3,7-12.5c2.7-3.3,5.7-5.9,8.5-8.9c2.8-2.9,5.5-6.1,7.7-10.4
				c0,0,0.1-0.1,0.1-0.2l-0.3-0.6c0,0,0,0,0-0.1c0,0,0,0,0,0c0,0,0-0.1,0-0.1c-0.1-0.8-0.5-3.2-0.9-5.5c-0.5-2.9-1.1-5.7-1.1-5.7
				s-0.3-1.4-0.8-3.5c-0.5-2.1-1.1-4.8-1.6-7.7c-0.5-2.8-1-5.8-1.2-8c-0.1-1.1-0.2-2-0.2-2.7c0-0.2,0-0.3,0-0.4
				C477.6,182.2,477.6,182,477.6,181.9z"/>
			<path id="XMLID_500_" class="st5" d="M512.2,193c-0.3,0.7-0.8,1.8-1.4,3.3c-1,2.3-2.4,5.4-3.8,8.5c-1.4,3.1-2.7,6.2-3.7,8.6
				c-1,2.4-1.6,4-1.6,4s-1.3,3.2-2.5,6.5c-0.9,2.6-1.8,5.3-2.1,6.4c0,0,0-0.1,0-0.1c0.3-1.2,1.1-3.9,2-6.5c1.1-3.4,2.4-6.7,2.4-6.7
				s0.7-1.6,1.7-4c1-2.3,2.4-5.4,3.8-8.4c1.4-3.1,2.8-6.1,3.9-8.4C511.4,194.8,511.9,193.7,512.2,193z"/>
			<path id="XMLID_501_" class="st5" d="M500.9,188c4.6,1.7,9.1,3.5,10.8,4.2c-1.7-0.6-6.3-2.3-10.9-3.9c-5.8-1.9-11.6-3.4-11.6-3.4
				s-2.9-0.9-5.8-1.6c-2.3-0.6-4.6-1.1-5.5-1.3c0.9,0.1,3.2,0.5,5.5,1c2.9,0.6,5.8,1.3,5.8,1.3S495.1,185.8,500.9,188z"/>
			<path id="XMLID_502_" class="st5" d="M495.4,229.8c-3.6-0.8-7.2-0.4-10.7,1.4c-2,1-3.9,2.5-5.7,4.3c-0.9,0.9-1.8,1.9-2.7,2.9
				c-0.9,1-1.8,2.1-2.5,3.4c-0.8,1.3-1.4,3-1.6,4.9c-0.2,2,0.1,3.9,0.6,5.6c1,3.5,2.6,6.2,3.2,10.2c0.2,1.9-0.1,4.1-0.8,5.6
				c-0.7,1.5-1.6,2.6-2.4,3.7c-1.7,2.1-3.6,3.7-5.6,5.1c-3.9,2.6-7.9,4.6-11.8,6.9l-11.8,6.6l-23.6,11.2l-0.1-0.5h0l0.1,0.5l3.8-2.7
				l19.8-8.9l11.8-6.6c3.9-2.2,7.9-4.2,11.8-6.8c1.9-1.3,3.8-2.9,5.5-5c0.8-1.1,1.7-2.2,2.4-3.6c0.7-1.4,1-3.5,0.7-5.4
				c-0.5-3.9-2.2-6.6-3.1-10.2c-0.5-1.7-0.8-3.7-0.6-5.8c0.2-2,0.9-3.7,1.6-5c0.8-1.4,1.6-2.4,2.5-3.4c0.9-1,1.8-2,2.7-2.9
				c1.8-1.8,3.7-3.3,5.7-4.3C488.2,229.4,491.9,229,495.4,229.8z"/>
			<path id="XMLID_503_" class="st5" d="M482.4,210.3c-0.6-2.7-1.3-5.3-1.3-5.3s-0.3-1.4-0.7-3.5c-0.3-1.5-0.7-3.3-1.1-5.2
				c-0.2-0.9-0.3-1.7-0.5-2.6c-0.2-1.4-0.5-2.9-0.6-4.3c-0.2-1.4-0.3-2.7-0.4-3.8c-0.1-1.1-0.2-2.1-0.2-2.7c0-0.2,0-0.3,0-0.4
				c0,0.1,0,0.3,0,0.4c0,0.7,0.1,1.6,0.2,2.7c0.2,2.2,0.7,5.2,1.2,8c0.5,2.9,1.1,5.6,1.6,7.7c0.5,2.1,0.8,3.5,0.8,3.5
				s0.6,2.8,1.1,5.7c0.5,2.3,0.8,4.7,0.9,5.5c-0.1-0.8-0.6-3.1-1.1-5.4C482.5,210.4,482.5,210.3,482.4,210.3z"/>
			<path id="XMLID_504_" class="st6" d="M273.3,368.2c0.3,0,0.7,0,1.1,0c1.1,0,2.4,0.1,3.9,0.2c1.5,0,3.2,0.2,5,0
				c1.8-0.1,3.9-0.2,6-0.3c0.5,0,1.1,0,1.6-0.1c0.5-0.1,1.1-0.2,1.6-0.3c1.1-0.2,2.2-0.3,3.4-0.5c1.1-0.2,2.3-0.3,3.5-0.6
				c1.2-0.3,2.4-0.7,3.6-1c1.2-0.4,2.4-0.7,3.6-1.1c1.2-0.5,2.4-1.1,3.6-1.6c4.8-2,9.4-5.6,13.5-9.5c1-1.1,2-2.2,2.9-3.3
				c0.9-1.1,1.9-2.1,2.7-3.4c0.9-1.2,1.7-2.4,2.5-3.5c0.4-0.6,0.8-1.1,1.2-1.7c0.4-0.6,0.7-1.2,1.1-1.8c0.7-1.2,1.4-2.3,2-3.4
				c0.3-0.5,0.6-1,0.9-1.6c0.3-0.5,0.6-1.1,0.8-1.6c1-2.1,2-3.9,2.7-5.4c0.8-1.5,1.3-2.7,1.7-3.6c0.4-0.8,0.6-1.3,0.6-1.3
				s0.4-0.9,1.2-2.5c0.8-1.6,1.9-4.2,3.3-7.4c2.8-6.3,6.6-15.6,11.4-26.7c1.2-2.7,2.4-5.6,3.7-8.5c0.6-1.5,1.4-2.9,2-4.4
				c0.7-1.4,1.4-3,2.2-4.4c1.6-2.8,3.1-5.8,4.8-8.5c0.9-1.4,1.7-2.8,2.6-4.1c0.9-1.3,1.8-2.6,2.8-3.9c3.8-5.2,7.8-10.1,12.1-14.4
				c2.1-2.3,4.4-4.2,6.6-6.3c2.3-1.9,4.5-3.9,6.8-5.6c18.3-14.2,37.8-21.7,52.4-25.5c9.2-2.4,16.4-3.5,20.6-3.9
				c2.5-0.3,3.9-0.3,3.9-0.3l0.2-0.1c0.4,1.9,0.8,3.7,1.1,5.2c0.4,2.1,0.7,3.5,0.7,3.5s0.6,2.6,1.3,5.3c-0.1,0-0.9,0-2.3,0.1
				c-0.1,0-0.2,0-0.3,0c-3.9,0.2-11.9,0.9-22.4,3.3c-14.9,3.4-34.8,10.4-53.5,24.5c-4.7,3.4-9.2,7.6-13.6,11.9
				c-4.4,4.4-8.5,9.4-12.3,14.7c-0.9,1.4-1.8,2.7-2.8,4.1c-0.5,0.7-0.9,1.4-1.4,2c-0.4,0.7-0.9,1.4-1.3,2.2
				c-0.9,1.5-1.7,2.9-2.5,4.3c-0.8,1.5-1.5,3-2.3,4.5c-0.4,0.7-0.8,1.5-1.1,2.2c-0.3,0.8-0.7,1.5-1,2.3c-0.7,1.5-1.4,3.1-2,4.5
				c-1.3,3.1-2.5,6-3.6,8.9c-4.6,11.4-8.5,20.9-11.4,27.4c-2.8,6.5-4.6,10-4.6,10s-0.8,1.8-2.3,4.9c-1.6,2.9-3.8,7.3-6.7,11.7
				c-1.4,2.4-3.2,4.4-4.9,6.8c-0.9,1.2-1.9,2.1-2.9,3.2c-1,1-2,2-3.1,3.1c-4.3,3.5-9,6.8-14,8.5c-1.2,0.5-2.5,0.9-3.7,1.4
				c-1.2,0.4-2.5,0.6-3.7,0.9c-1.2,0.3-2.4,0.6-3.6,0.9c-1.2,0.3-2.4,0.3-3.6,0.5c-2.3,0.2-4.6,0.7-6.7,0.7c-1.2,0-2.3,0.1-3.4,0.1
				l0.1-0.2l0.1-0.2c0,0-0.1,0-0.1,0h0c0,0-0.1,0-0.1,0c-5.2,0-10.3,0-15.3,0c0.1-1.2,0.1-1.9,0.1-1.9s0.1-3.7,0.5-9.4l0.2,0.1
				c0,0,0.3,0,0.9,0C272.3,368.2,272.8,368.2,273.3,368.2z"/>
			<path id="XMLID_505_" class="st7" d="M477.6,189.4l0.7-0.1c0.2,1.4,0.4,2.9,0.6,4.3c0.2,0.9,0.3,1.8,0.5,2.6l-0.2,0.1
				c0,0-1.4,0.1-3.9,0.3c-4.2,0.5-11.5,1.5-20.6,3.9c-14.6,3.9-34.1,11.3-52.4,25.5c-2.3,1.7-4.5,3.7-6.8,5.6
				c-2.2,2.1-4.4,4-6.6,6.3c-4.3,4.3-8.4,9.3-12.1,14.4c-0.9,1.3-1.9,2.6-2.8,3.9c-0.9,1.3-1.7,2.8-2.6,4.1
				c-1.8,2.7-3.3,5.7-4.8,8.5c-0.8,1.4-1.5,3-2.2,4.4c-0.7,1.5-1.4,2.9-2,4.4c-1.3,2.9-2.5,5.8-3.7,8.5c-4.7,11-8.6,20.3-11.4,26.7
				c-1.4,3.2-2.5,5.7-3.3,7.4c-0.8,1.7-1.2,2.5-1.2,2.5s-0.2,0.4-0.6,1.3c-0.4,0.8-0.9,2.1-1.7,3.6c-0.8,1.5-1.7,3.3-2.7,5.4
				c-0.3,0.5-0.5,1-0.8,1.6c-0.3,0.5-0.6,1-0.9,1.6c-0.6,1.1-1.3,2.2-2,3.4c-0.3,0.6-0.7,1.2-1.1,1.8c-0.4,0.6-0.8,1.1-1.2,1.7
				c-0.8,1.1-1.6,2.3-2.5,3.5c-0.8,1.3-1.8,2.2-2.7,3.4c-1,1.1-1.9,2.2-2.9,3.3c-4.1,3.9-8.7,7.5-13.5,9.5c-1.2,0.5-2.4,1.1-3.6,1.6
				c-1.2,0.4-2.4,0.7-3.6,1.1c-1.2,0.3-2.4,0.7-3.6,1c-1.2,0.3-2.4,0.4-3.5,0.6c-1.1,0.2-2.3,0.3-3.4,0.5c-0.6,0.1-1.1,0.2-1.6,0.3
				c-0.6,0-1.1,0-1.6,0.1c-2.1,0.1-4.1,0.2-6,0.3c-1.8,0.2-3.5,0-5,0c-1.5-0.1-2.8-0.1-3.9-0.2c-0.4,0-0.8,0-1.1,0
				c-0.6,0-1,0-1.4-0.1c-0.6,0-0.9,0-0.9,0l-0.2-0.1c0-0.4,0.1-0.9,0.1-1.4c0.2-2.9,0.5-6.3,0.8-9.9l0.1,0c0,0,0.3,0,0.9,0.1
				c0.1,0,0.3,0,0.5,0.1c0.5,0.1,1.2,0.2,2,0.3c2.1,0.3,5.2,0.7,8.8,0.9c7.3,0.4,17.2,0.6,26.7-3.8c4.7-2.3,9.3-5.8,13.2-10.6
				s7.1-10.4,9.6-15.5c2.5-5.1,4.5-9.7,5.9-12.8c1.4-3.2,2.2-5,2.2-5s1.5-3.6,4.3-10c2.7-6.4,6.6-15.5,11.6-25.8
				c5-10.3,11.1-22,18.7-32c3.8-5,7.8-9.7,12.1-14c4.3-4.2,8.7-8.3,13.3-11.7c18.2-14,37.6-21,52.1-24.3c8-1.9,14.6-2.6,18.9-3
				c0.1,0,0.2,0,0.3,0c0.1,0,0.3,0,0.4,0c0.1,0,0.1,0,0.2,0c0.3,0,0.6,0,0.8,0c0.1,0,0.2,0,0.3,0c0.2,0,0.3,0,0.5,0
				c0.1,0,0.2,0,0.3,0c0.2,0,0.4,0,0.6,0C476.7,189.4,477.3,189.4,477.6,189.4z"/>
			<path id="XMLID_506_" class="st8" d="M273.1,357c-0.2,0-0.3,0-0.5-0.1c-0.6-0.1-0.9-0.1-0.9-0.1l-0.1,0c0.3-2.8,0.6-5.8,0.9-8.8
				c7.6,0,15.3,0,23.1,0c1,0.1,1.9,0.1,2.7,0.2c2.8,0.1,4.8-0.2,4.8-0.2s0.9-0.1,2.6-0.5c1.6-0.4,4-1.2,6.7-3
				c2.7-1.7,5.7-4.6,8.7-8.4c3-3.8,5.9-8.5,8.7-13.6c5.5-10.2,10.2-21.7,13.7-30.4c1.7-4.4,3.1-8.1,4.1-10.7
				c0.1-0.3,0.2-0.6,0.3-0.9c0,0,0,0,0,0c0.1-0.3,0.2-0.5,0.3-0.8c0.3-0.7,0.5-1.3,0.7-1.7c0.1-0.3,0.2-0.5,0.2-0.6
				c0,0,0.1-0.3,0.3-0.8c0.2-0.5,0.5-1.3,0.9-2.3c0.4-1,0.9-2.2,1.4-3.6c0.3-0.7,0.6-1.4,0.9-2.2c0.3-0.7,0.7-1.5,1.1-2.3
				c0.7-1.6,1.5-3.3,2.4-5.1c0.9-1.8,1.9-3.5,2.9-5.4c0.5-0.9,1-1.9,1.5-2.8c0.6-0.9,1.1-1.8,1.7-2.7c1.1-1.8,2.2-3.8,3.4-5.4
				c4.6-7.1,9.8-13,13.6-17.3c2-2,3.6-3.7,4.7-4.9c1.2-1.1,1.8-1.7,1.8-1.7s1.3-1.2,3.7-3.4c1.2-1,2.6-2.2,4.3-3.6
				c1.7-1.4,3.6-2.7,5.6-4.3c8.3-6.1,19.7-12.6,31.3-17.2c11.6-4.6,23.4-7.5,32.2-8.9c6.4-1,11.2-1.4,13.4-1.5c0.4,0,0.7,0,0.9,0
				c0.1,0,0.2,0,0.3,0c0,0.1,0,0.3,0,0.5c0,0.1,0,0.3,0,0.4c0,0.7,0.1,1.6,0.2,2.7c0.1,1.1,0.2,2.4,0.4,3.8l-0.7,0.1
				c-0.3,0-0.8,0-1.5,0c-0.2,0-0.4,0-0.6,0c-0.1,0-0.2,0-0.3,0c-0.2,0-0.3,0-0.5,0c-0.1,0-0.2,0-0.3,0c-0.3,0-0.5,0-0.8,0
				c-0.1,0-0.1,0-0.2,0c-0.1,0-0.3,0-0.4,0c-0.1,0-0.2,0-0.3,0c-4.3,0.3-10.9,1.1-18.9,3c-14.5,3.3-33.9,10.4-52.1,24.3
				c-4.6,3.4-9,7.5-13.3,11.7c-4.3,4.3-8.3,9-12.1,14c-7.6,9.9-13.7,21.7-18.7,32c-5,10.3-8.9,19.4-11.6,25.8
				c-2.7,6.4-4.3,10-4.3,10s-0.8,1.8-2.2,5c-1.4,3.1-3.3,7.7-5.9,12.8c-2.5,5.1-5.7,10.7-9.6,15.5s-8.5,8.3-13.2,10.6
				c-9.6,4.4-19.4,4.2-26.7,3.8c-3.7-0.3-6.7-0.6-8.8-0.9C274.3,357.1,273.7,357.1,273.1,357z"/>
			<path id="XMLID_507_" class="st5" d="M483.8,216.9c-2.2,4.3-4.9,7.5-7.7,10.4c-2.8,3-5.8,5.6-8.5,8.9c-2.7,3.2-5.4,7.2-7,12.5
				c-0.8,2.6-1.2,6-0.6,8.8c0.6,2.8,2.2,5,3.8,4l0.2-0.1l-0.1,0.4c-0.2,1.9-0.6,3.7-1.1,5.4c-0.5,1.7-1.1,3.2-1.9,4.5
				c-1.5,2.7-3.2,4.7-4.9,6.4c-1.8,1.7-3.6,3.1-5.5,4.4l-5.6,4l-21.1,12.7l-3.8,2.2l24.8-15.5l5.6-3.9c1.9-1.3,3.7-2.6,5.5-4.3
				c1.8-1.7,3.5-3.7,4.9-6.3c1.4-2.5,2.4-5.7,2.9-9.2c0.1,0,0.1,0,0.2-0.1l-0.1-0.2c0,0.1,0,0.2-0.1,0.3c-0.8,0.3-1.6,0-2.2-0.8
				c-0.7-0.9-1.3-2.1-1.6-3.6c-0.7-3-0.2-6.5,0.6-9.1c1.7-5.4,4.4-9.3,7.1-12.6c2.8-3.3,5.7-5.8,8.6-8.8
				C478.9,224.4,481.6,221.2,483.8,216.9z"/>
			<path id="XMLID_508_" d="M476.4,181.9c0.4,0,0.7,0,0.9,0C477.1,181.9,476.8,181.9,476.4,181.9z"/>
			<path id="XMLID_509_" d="M457.5,213.7c10.5-2.4,18.6-3.1,22.4-3.3c-3.9,0.2-11.9,1-22.4,3.4c-14.9,3.5-34.7,10.5-53.4,24.6
				c-4.7,3.5-9.2,7.6-13.6,12c-4.4,4.4-8.5,9.5-12.3,14.7c-0.9,1.4-1.8,2.8-2.8,4.1c-0.5,0.7-0.9,1.4-1.4,2
				c-0.4,0.7-0.9,1.5-1.3,2.2c-0.8,1.4-1.7,2.9-2.5,4.3c-0.8,1.5-1.5,3-2.3,4.5c-0.4,0.7-0.8,1.5-1.1,2.2c-0.3,0.8-0.7,1.6-1,2.3
				c-0.7,1.5-1.3,3-2,4.5c-1.3,3.1-2.5,6-3.6,8.9c-4.6,11.4-8.5,21-11.3,27.4c-2.8,6.5-4.6,10-4.6,10s-0.9,1.8-2.4,4.8
				c-1.6,2.9-3.8,7.3-6.8,11.7c-1.4,2.4-3.2,4.4-5,6.7c-0.9,1.2-1.9,2.2-2.9,3.2c-1,1-2,2-3.1,3.1c-4.3,3.5-9.1,6.7-14,8.5
				c-1.2,0.5-2.5,0.9-3.7,1.4c-1.2,0.4-2.5,0.6-3.7,0.9c-1.2,0.3-2.4,0.6-3.6,0.8c-1.2,0.3-2.4,0.3-3.6,0.5
				c-2.3,0.2-4.6,0.7-6.8,0.7c-1.2,0-2.3,0-3.4,0.1l0.1-0.1c1.1,0,2.2,0,3.4-0.1c2.2,0,4.4-0.5,6.7-0.7c1.2-0.2,2.4-0.2,3.6-0.5
				c1.2-0.3,2.4-0.6,3.6-0.9c1.2-0.3,2.5-0.5,3.7-0.9c1.2-0.5,2.4-0.9,3.7-1.4c4.9-1.8,9.7-5,14-8.5c1-1.1,2.1-2.1,3.1-3.1
				c1-1,2-1.9,2.9-3.2c1.8-2.4,3.5-4.3,4.9-6.8c3-4.4,5.1-8.8,6.7-11.7c1.5-3.1,2.3-4.9,2.3-4.9s1.8-3.4,4.6-10
				c2.8-6.4,6.7-16,11.4-27.4c1.2-2.9,2.4-5.8,3.6-8.9c0.7-1.5,1.3-3,2-4.5c0.3-0.8,0.7-1.5,1-2.3c0.4-0.7,0.8-1.5,1.1-2.2
				c0.8-1.5,1.5-3,2.3-4.5c0.8-1.4,1.7-2.8,2.5-4.3c0.4-0.7,0.9-1.4,1.3-2.2c0.5-0.7,0.9-1.4,1.4-2c0.9-1.4,1.8-2.7,2.8-4.1
				c3.9-5.2,8-10.3,12.3-14.7c4.4-4.4,8.9-8.5,13.6-11.9C422.7,224,442.6,217.1,457.5,213.7z"/>
			<path id="XMLID_510_" d="M475.1,189.5c-0.2,0-0.3,0-0.5,0C474.8,189.5,475,189.5,475.1,189.5z"/>
			<path id="XMLID_511_" d="M462.9,183.3c6.4-1,11.2-1.3,13.4-1.4C474.2,182,469.3,182.4,462.9,183.3c-8.8,1.5-20.6,4.4-32.2,9
				c-11.6,4.6-23,11.1-31.3,17.2c-2.1,1.6-4,2.9-5.6,4.3c-1.6,1.4-3.1,2.6-4.3,3.6c-2.3,2.2-3.7,3.4-3.7,3.4s-0.7,0.6-1.8,1.7
				c-1.1,1.2-2.8,2.9-4.7,4.9c-3.8,4.3-9,10.1-13.6,17.3c-1.2,1.6-2.3,3.6-3.4,5.4c-0.6,0.9-1.1,1.8-1.7,2.7c-0.5,0.9-1,1.9-1.5,2.8
				c-1,1.9-2,3.6-2.9,5.4c-0.9,1.8-1.7,3.6-2.4,5.1c-0.4,0.8-0.7,1.6-1.1,2.3c-0.3,0.7-0.6,1.5-0.9,2.2c-0.6,1.4-1,2.6-1.4,3.6
				c-0.4,1-0.7,1.8-0.9,2.3c0.2-0.5,0.5-1.3,0.9-2.3s0.9-2.2,1.4-3.6c0.3-0.7,0.6-1.4,0.9-2.2c0.3-0.7,0.7-1.5,1.1-2.3
				c0.7-1.6,1.5-3.3,2.4-5.2c0.9-1.8,1.9-3.6,2.8-5.4c0.5-0.9,1-1.9,1.5-2.9c0.6-0.9,1.1-1.8,1.7-2.7c1.1-1.8,2.2-3.8,3.4-5.4
				c4.6-7.2,9.7-13.1,13.5-17.5c2-2,3.6-3.7,4.7-4.9c1.2-1.1,1.8-1.7,1.8-1.7s1.3-1.2,3.7-3.4c1.2-1,2.6-2.2,4.3-3.6
				c1.7-1.4,3.6-2.7,5.6-4.3c8.3-6,19.7-12.5,31.3-17C442.3,187.5,454.1,184.7,462.9,183.3z"/>
			<path id="XMLID_512_" d="M474.3,189.5c-0.3,0-0.5,0-0.8,0C473.8,189.6,474,189.5,474.3,189.5z"/>
			<path id="XMLID_513_" class="st5" d="M463.7,261.7l0.1,0.2c-0.1,0.1-0.1,0.1-0.2,0.1C463.7,261.9,463.7,261.8,463.7,261.7z"/>
			<polygon id="XMLID_514_" class="st5" points="423.9,299.1 420.1,301.7 420,301.2 			"/>
			<path id="XMLID_515_" d="M349,277.8c-0.1,0.4-0.4,1-0.7,1.7C348.6,278.8,348.8,278.2,349,277.8z"/>
			<path id="XMLID_516_" d="M348,280.4c-0.1,0.3-0.2,0.6-0.3,0.9c-1,2.6-2.4,6.3-4.1,10.7c-3.5,8.8-8.2,20.2-13.7,30.4
				c-2.7,5.1-5.7,9.8-8.7,13.6c-3,3.8-6,6.6-8.7,8.4c-2.7,1.8-5.1,2.6-6.7,3c-1.7,0.4-2.6,0.5-2.6,0.5s-1.9,0.3-4.8,0.2
				c-0.8,0-1.7-0.1-2.7-0.2c1.2,0,2.4,0,3.7,0c0,0,0,0,0.1,0l-0.2-0.3l0-0.1c2.4,0,3.9-0.2,3.9-0.2s0.9-0.1,2.6-0.5
				c1.6-0.4,4-1.2,6.7-2.9c2.7-1.7,5.7-4.5,8.7-8.2c3-3.7,5.9-8.4,8.7-13.5c5.5-10.1,10.3-21.6,13.8-30.3c1.7-4.4,3.2-8,4.1-10.7
				C347.8,281,347.9,280.7,348,280.4z"/>
			<path id="XMLID_517_" d="M299.3,347.6l0.2,0.3c0,0,0,0-0.1,0L299.3,347.6C299.3,347.6,299.3,347.6,299.3,347.6z"/>
			<path id="XMLID_518_" d="M299.4,348c-1.2,0-2.4,0-3.7,0c-1-0.1-2-0.2-3.1-0.3c2.2,0,4.4,0,6.6,0L299.4,348z"/>
			<path id="XMLID_519_" d="M299.3,347.6L299.3,347.6C299.3,347.6,299.3,347.6,299.3,347.6L299.3,347.6
				C299.2,347.6,299.3,347.6,299.3,347.6z"/>
			<path id="XMLID_520_" class="st5" d="M293.9,336.7l5.4,10.9c0,0-0.1,0-0.1,0l-5.6-10.4L280.9,312L293.9,336.7z"/>
			<path id="XMLID_521_" d="M299.3,347.6c-2.2,0-4.4,0-6.6,0c-1.5-0.1-3.1-0.3-4.7-0.4c-3.8-0.3-7.6-0.4-10.4-0.1
				c-1.4,0.1-2.6,0.3-3.4,0.4c-0.2,0-0.4,0.1-0.6,0.1c0.2,0,0.3-0.1,0.6-0.1c0.8-0.2,2-0.3,3.4-0.5c2.8-0.3,6.6-0.4,10.4-0.1
				s7.6,0.7,10.4,0.7C298.7,347.6,299,347.6,299.3,347.6L299.3,347.6z"/>
			<path id="XMLID_522_" class="st4" d="M299.2,347.6c-0.2,0-0.5,0-0.8,0c-2.8,0-6.6-0.4-10.4-0.7s-7.6-0.2-10.4,0.1
				c-1.4,0.2-2.6,0.3-3.4,0.5c-0.2,0-0.4,0.1-0.6,0.1c-0.2,0-0.3,0-0.4,0.1c-0.2,0-0.3,0-0.5,0c0.2-1.5,0.4-2.9,0.6-4.4
				c1.1-8.4,2.6-16.6,4.2-22.4c0.8-2.9,1.5-5.2,2.1-6.7c0.1-0.2,0.1-0.4,0.2-0.5c0,0,0,0,0,0c0.1-0.2,0.1-0.3,0.2-0.4
				c0.1-0.2,0.1-0.3,0.2-0.4c0-0.1,0.1-0.2,0.1-0.3c0,0,0,0,0,0c0-0.1,0.1-0.2,0.1-0.2c0,0,0,0,0,0c0-0.1,0.1-0.1,0.1-0.2
				c0-0.1,0.1-0.1,0.1-0.1v-0.4h0.3v0.5l0,0l0.1,0.1l12.8,25.2L299.2,347.6z"/>
			<path id="XMLID_523_" class="st5" d="M273.2,347.7c6.4,0,12.9,0,19.5,0c1.1,0.1,2.1,0.2,3.1,0.3c-7.8,0-15.5,0-23.1,0
				c0-0.1,0-0.2,0-0.2C272.9,347.7,273,347.7,273.2,347.7z"/>
			<path id="XMLID_524_" class="st9" d="M292.7,347.6c-6.6,0-13.1,0-19.5,0c0.1,0,0.2,0,0.4-0.1s0.3,0,0.6-0.1
				c0.8-0.2,2-0.3,3.4-0.4c2.8-0.3,6.6-0.2,10.4,0.1C289.6,347.3,291.2,347.5,292.7,347.6z"/>
			<path id="XMLID_525_" class="st5" d="M285.8,379.4l-0.1,0.2c0,0-0.1,0-0.1,0l0.1-0.2h0C285.7,379.4,285.7,379.4,285.8,379.4z"/>
			<path id="XMLID_526_" class="st5" d="M285.6,379.6l-0.1,0.2c0,0-0.1,0-0.1,0l0.1-0.2l0,0C285.5,379.6,285.6,379.6,285.6,379.6z"
				/>
			<path id="XMLID_527_" class="st5" d="M285.6,379.4l-0.1,0.2h0c0,0-0.1,0-0.1,0l0.1-0.2C285.5,379.4,285.6,379.4,285.6,379.4z"/>
			<path id="XMLID_528_" d="M285.5,379.8l-0.1,0.1h0c0,0-0.1,0-0.1,0l0.1-0.1C285.4,379.8,285.5,379.8,285.5,379.8z"/>
			<polygon id="XMLID_529_" class="st5" points="285.5,379.6 285.5,379.6 285.5,379.6 			"/>
			<path id="XMLID_530_" class="st5" d="M285.5,379.6L285.5,379.6l-0.1,0.2c0,0-0.1,0-0.1,0l0.1-0.2
				C285.4,379.6,285.4,379.6,285.5,379.6z"/>
			<path id="XMLID_531_" class="st5" d="M285.5,379.9l-2.7,5.3l-13.7,26l13.5-26.5l2.6-4.9h0c0,0,0.1,0,0.1,0l0,0.1l0-0.1
				C285.4,379.9,285.4,379.9,285.5,379.9z"/>
			<path id="XMLID_532_" class="st5" d="M271.2,379.5c0.6,0,1.4,0.1,2.5,0.2c-1.2,0-2.4,0-3.6,0c0-0.1,0-0.2,0-0.2
				c5,0,10.1,0,15.3,0l-0.1,0.2c-3.6,0-7.2,0-10.7,0c-0.3,0-0.6,0-0.9,0C272.7,379.5,271.8,379.5,271.2,379.5z"/>
			<path id="XMLID_533_" d="M285.4,379.8l-0.1,0.1h0c0,0-0.1,0-0.1,0l0.1-0.1C285.3,379.8,285.3,379.8,285.4,379.8z"/>
			<polygon id="XMLID_534_" class="st5" points="285.3,379.9 285.3,380 285.3,379.9 			"/>
			<path id="XMLID_535_" class="st9" d="M285.3,379.6l-0.1,0.2c-0.8,0-1.6,0-2.4,0.1c-1.9,0.1-3.6,0-5.1-0.1c-1.1,0-2.2-0.1-3.1-0.2
				C278.2,379.6,281.7,379.6,285.3,379.6z"/>
			<path id="XMLID_536_" d="M285.2,379.8l-0.1,0.1h0c-0.8,0-1.6,0-2.3,0c-1.9,0.1-3.6,0-5.1-0.1c-1.5-0.1-2.9-0.2-4-0.2
				c0.3,0,0.6,0,0.9,0c0.9,0.1,1.9,0.1,3.1,0.2c1.5,0.1,3.2,0.2,5.1,0.1C283.6,379.8,284.4,379.8,285.2,379.8z"/>
			<path id="XMLID_537_" class="st10" d="M285.2,379.9l-2.6,4.9l-13.5,26.5c0,0,0,0,0,0c0.1-2.4,0.2-9.4,0.4-16.5
				c0.2-6.1,0.5-12.1,0.6-15.1c1.2,0,2.4,0,3.6,0c1.1,0,2.4,0.1,4,0.2c1.5,0.1,3.2,0.2,5.1,0.1C283.6,379.9,284.4,379.9,285.2,379.9
				z"/>
			<path id="XMLID_538_" class="st11" d="M280.4,311.3v0.4c0,0,0,0-0.1,0.1c0,0.1,0,0.1-0.1,0.2c0,0,0,0,0,0c0,0.1-0.1,0.1-0.1,0.2
				c0,0,0,0,0,0c0,0.1-0.1,0.2-0.1,0.3c-0.1,0.1-0.1,0.2-0.2,0.4c-0.1,0.1-0.1,0.3-0.2,0.4c0,0,0,0,0,0c-0.1,0.2-0.1,0.3-0.2,0.5
				c-0.6,1.5-1.4,3.8-2.1,6.7c-1.6,5.8-3.1,14-4.3,22.4c-0.2,1.5-0.4,3-0.6,4.5c-11,0-21.6,0-31.3,0c-0.3-2.4-0.6-4.8-0.9-7.2
				c-1.2-8.4-2.7-16.6-4.3-22.4c-0.8-2.9-1.6-5.2-2.1-6.7c0,0,0-0.1,0-0.1l31.3,0.3l15-0.3H280.4z"/>
			<polygon id="XMLID_539_" class="st5" points="280,311.3 265.1,311.7 233.8,311.3 265.1,311 			"/>
			<path id="XMLID_540_" class="st5" d="M279.5,314.1c0.1-0.2,0.1-0.4,0.2-0.5C279.6,313.7,279.6,313.9,279.5,314.1
				c-0.6,1.6-1.3,3.8-2.1,6.7c-1.5,5.8-3,14-4.2,22.4c-0.2,1.5-0.4,3-0.6,4.4c-0.1,0-0.1,0-0.2,0c0.2-1.5,0.4-3,0.6-4.5
				c1.2-8.4,2.7-16.6,4.3-22.4C278.2,317.9,278.9,315.6,279.5,314.1z"/>
			<path id="XMLID_541_" d="M274.6,379.6c-0.3,0-0.6,0-0.9,0c-1.1-0.1-1.9-0.1-2.5-0.2c0.6,0,1.4,0.1,2.5,0.1
				C274.1,379.6,274.3,379.6,274.6,379.6z"/>
			<path id="XMLID_542_" d="M272.7,356.9c0.1,0,0.3,0,0.5,0.1C273,357,272.8,356.9,272.7,356.9z"/>
			<path id="XMLID_543_" class="st5" d="M272.5,347.7c0.1,0,0.1,0,0.2,0c0,0.1,0,0.2,0,0.2c-0.1,0-0.1,0-0.2,0
				C272.4,347.8,272.5,347.8,272.5,347.7z"/>
			<path id="XMLID_544_" class="st5" d="M272.4,347.9c0.1,0,0.1,0,0.2,0c-0.4,3-0.7,6-0.9,8.8c-0.3,3.6-0.6,7-0.8,9.9
				c0,0.5-0.1,0.9-0.1,1.4c-0.4,5.7-0.5,9.4-0.5,9.4s0,0.7-0.1,1.9c-0.1,0-0.2,0-0.3,0c0.1-1.3,0.1-2,0.1-2s0.2-4.3,0.7-10.8
				C271,361.4,271.6,354.7,272.4,347.9z"/>
			<path id="XMLID_545_" class="st5" d="M272.5,347.7c0,0.1,0,0.2,0,0.2l-31.3,0c0,0,0-0.1,0-0.2
				C250.9,347.7,261.5,347.7,272.5,347.7z"/>
			<path id="XMLID_546_" class="st11" d="M243,368.9c-0.1-1.4-0.2-3.1-0.3-4.9c-0.3-4.6-0.8-10.2-1.5-16l31.3,0
				c-0.9,6.8-1.4,13.4-1.8,18.7c-0.5,6.4-0.7,10.8-0.7,10.8s0,0.7-0.1,2c-9.3,0-18.2,0-26.3,0c-0.1-2.9-0.2-4.7-0.2-4.7
				S243.2,372.5,243,368.9z"/>
			<path id="XMLID_547_" class="st5" d="M270.2,379.4c0,0.1,0,0.2,0,0.2c-0.1,0-0.2,0-0.3,0c0-0.1,0-0.2,0-0.2
				C270,379.4,270.1,379.4,270.2,379.4z"/>
			<path id="XMLID_548_" class="st5" d="M269.9,379.6c0.1,0,0.2,0,0.3,0c-0.2,3.1-0.5,9.1-0.6,15.1c-0.2,7-0.4,14.1-0.4,16.5
				c0-2.4,0.1-9.4,0.3-16.5C269.5,388.8,269.7,382.8,269.9,379.6z"/>
			<path id="XMLID_549_" class="st5" d="M269.9,379.4c0,0.1,0,0.1,0,0.2c-9.3,0-18.2,0-26.3-0.1c0,0,0-0.1,0-0.1
				C251.7,379.4,260.5,379.4,269.9,379.4z"/>
			<path id="XMLID_550_" class="st11" d="M269.9,379.6c-0.1,3.1-0.3,9.1-0.5,15.1c-0.2,7.1-0.2,14.1-0.3,16.5c0,0,0,0,0,0v0
				l-0.1,0.2l-17-0.3l-7.7,0.3l0-2c0,0,0-0.2,0-0.6c0-2.1-0.1-9.5-0.3-16.8c-0.1-4.6-0.2-9.2-0.4-12.5
				C251.7,379.6,260.5,379.6,269.9,379.6z"/>
			<path id="XMLID_551_" class="st5" d="M269.1,411.3c0,0.1,0,0.1,0,0.2h0C269.1,411.4,269.1,411.4,269.1,411.3z"/>
			<path id="XMLID_552_" class="st5" d="M269.1,411.5c0,0.4,0,0.6,0,0.6S269.1,411.9,269.1,411.5L269.1,411.5z"/>
			<polygon id="XMLID_553_" class="st5" points="269,411.5 252,411.8 243.5,411.5 244.2,411.5 252,411.2 			"/>
			<path id="XMLID_554_" class="st10" d="M244.2,409.4l0,2l-0.7,0l-0.4-0.7l-10.8-21.4l-5.1-9.4c1.2,0,2.4,0.1,3.5,0.1
				c1.9,0.1,3.6-0.1,5.1-0.1c1.5-0.1,2.8-0.2,4-0.2c0.4,0,0.8,0,1.1-0.1c1.5-0.1,2.3-0.1,2.3-0.1c0.1,3.3,0.3,7.9,0.5,12.5
				c0.2,7.3,0.4,14.7,0.5,16.8C244.2,409.2,244.2,409.4,244.2,409.4z"/>
			<path id="XMLID_555_" class="st5" d="M243.9,392c0.2,7.3,0.2,14.7,0.3,16.8c0-2.1-0.2-9.5-0.5-16.8c-0.1-4.6-0.3-9.2-0.5-12.5
				c0.1,0,0.2,0,0.3,0C243.7,382.8,243.8,387.5,243.9,392z"/>
			<path id="XMLID_556_" class="st5" d="M243.5,379.4c0,0,0,0.1,0,0.1c-0.1,0-0.2,0-0.3,0c0,0,0-0.1,0-0.1
				C243.3,379.4,243.4,379.4,243.5,379.4z"/>
			<path id="XMLID_557_" class="st5" d="M243.5,379.4c-0.1,0-0.2,0-0.3,0c-0.1-2.8-0.2-4.6-0.2-4.6s-0.1-2.2-0.3-5.9
				c0.1,0,0.3,0,0.3,0c0.2,3.6,0.3,5.9,0.3,5.9S243.4,376.6,243.5,379.4z"/>
			<path id="XMLID_558_" class="st5" d="M243.2,379.4c0,0,0,0.1,0,0.1c-5.8,0-11.3,0-16.2,0h0l0,0
				C231.9,379.4,237.4,379.4,243.2,379.4z"/>
			<path id="XMLID_559_" class="st5" d="M232.4,389.4l10.8,21.4l-11-20.9l-4.9-9.9c0,0,0,0,0.1,0L232.4,389.4z"/>
			<path id="XMLID_560_" class="st9" d="M243.2,379.6c0,0-0.8,0-2.3,0.1c-0.3,0-0.7,0-1.1,0c-1.1,0-2.4,0.1-4,0.2
				c-1.5,0.1-3.2,0.2-5.1,0.1c-1.1,0-2.3-0.1-3.5-0.1l-0.2-0.4C231.9,379.5,237.4,379.6,243.2,379.6z"/>
			<path id="XMLID_561_" class="st6" d="M36.7,197.3c3.5,0.3,11.8,1.3,22.8,4.2c14.6,3.8,34.1,11.3,52.4,25.5
				c2.3,1.7,4.5,3.7,6.8,5.6c2.2,2.1,4.4,4,6.6,6.3c4.3,4.3,8.4,9.3,12.1,14.4c0.9,1.3,1.8,2.7,2.8,4c0.9,1.3,1.7,2.8,2.6,4.1
				c1.8,2.7,3.3,5.7,4.8,8.5c0.8,1.4,1.4,3,2.2,4.4c0.7,1.5,1.4,2.9,2,4.4c1.3,2.9,2.5,5.8,3.7,8.5c4.7,11,8.6,20.3,11.4,26.7
				c1.4,3.2,2.5,5.7,3.3,7.3c0.8,1.7,1.2,2.5,1.2,2.5s0.2,0.4,0.6,1.3c0.4,0.8,0.9,2.1,1.7,3.6c0.8,1.5,1.7,3.3,2.7,5.3
				c0.3,0.5,0.5,1,0.8,1.6c0.3,0.5,0.6,1,0.9,1.6c0.6,1.1,1.3,2.2,2,3.4c0.3,0.6,0.7,1.2,1.1,1.8c0.4,0.6,0.8,1.1,1.2,1.7
				c0.8,1.2,1.6,2.3,2.5,3.6c0.8,1.3,1.8,2.2,2.7,3.4c1,1.1,1.9,2.3,2.9,3.3c4.1,3.9,8.7,7.5,13.5,9.5c1.2,0.5,2.4,1.1,3.6,1.6
				c1.2,0.3,2.4,0.7,3.6,1.1c1.2,0.3,2.4,0.7,3.6,1c1.2,0.3,2.4,0.4,3.5,0.6c1.1,0.2,2.3,0.4,3.4,0.5c0.6,0.1,1.1,0.2,1.6,0.3
				c0.5,0,1.1,0.1,1.6,0.1c2.1,0.1,4.1,0.2,6,0.3c1.8,0.2,3.5,0,5,0c1.5-0.1,2.8-0.1,3.9-0.2c0.5,0,1,0,1.4,0c0.1,0,0.2,0,0.3,0
				c0.2,0,0.4,0,0.5,0c0.3,0,0.6,0,0.7,0c0.2,3.7,0.3,5.9,0.3,5.9s0.1,1.8,0.2,4.6c-5.8,0-11.3,0-16.3,0h0c0,0,0,0,0,0l-0.3-0.7
				l0.3,0.7l0,0l0.2,0.4c-0.8,0-1.6,0-2.5-0.1c-2.2,0-4.4-0.5-6.7-0.7c-1.2-0.2-2.4-0.2-3.6-0.5c-1.2-0.3-2.4-0.6-3.6-0.9
				c-1.2-0.3-2.5-0.5-3.7-0.9c-1.2-0.5-2.5-0.9-3.7-1.4c-4.9-1.8-9.7-5-14-8.5c-1-1-2-2.1-3.1-3.1c-1-1-2-2-2.9-3.2
				c-1.8-2.4-3.5-4.3-4.9-6.8c-3-4.4-5.1-8.8-6.7-11.6c-1.5-3.1-2.4-4.9-2.4-4.9s-1.7-3.5-4.6-10c-2.8-6.5-6.7-16-11.4-27.4
				c-1.2-2.8-2.4-5.8-3.6-8.9c-0.7-1.5-1.3-3-2-4.6c-0.3-0.8-0.7-1.5-1-2.3c-0.4-0.7-0.8-1.5-1.1-2.2c-0.8-1.5-1.5-3-2.3-4.5
				c-0.8-1.4-1.7-2.8-2.5-4.3c-0.4-0.7-0.9-1.5-1.3-2.2c-0.5-0.7-0.9-1.4-1.4-2c-0.9-1.4-1.8-2.7-2.8-4.1c-3.9-5.2-8-10.3-12.3-14.7
				c-4.4-4.4-8.9-8.5-13.6-11.9c-18.7-14.1-38.6-21-53.5-24.5c-10.7-2.5-18.9-3.2-22.7-3.4c-1.1-0.1-1.8-0.1-2.1-0.1
				c0.6-2.7,1.3-5.4,1.3-5.4s0.3-1.4,0.8-3.5c0.3-1.3,0.6-2.9,0.9-4.6l0.6,0.3c0,0,0.3,0,1,0.1C36.1,197.2,36.4,197.2,36.7,197.3z"
				/>
			<path id="XMLID_562_" class="st5" d="M241.8,356.5c-0.2-2.7-0.5-5.7-0.9-8.7c0.1,0,0.1,0,0.2,0c0.7,5.9,1.2,11.5,1.5,16
				c0.1,1.8,0.2,3.5,0.3,4.9c-0.1,0-0.2,0-0.3,0c-0.1-1.4-0.2-3.1-0.3-4.9C242.2,361.7,242,359.2,241.8,356.5z"/>
			<path id="XMLID_563_" d="M242.7,368.9c0.2,0,0.3,0,0.3,0C243,368.9,242.8,368.9,242.7,368.9C242.7,368.9,242.7,368.9,242.7,368.9
				z"/>
			<path id="XMLID_564_" d="M242.7,368.9c-0.2,0-0.4,0-0.7,0C242.3,368.9,242.5,368.9,242.7,368.9
				C242.7,368.9,242.7,368.9,242.7,368.9z"/>
			<path id="XMLID_565_" class="st7" d="M37.9,189.2c3.7,0.1,11.7,0.7,22.1,3.1c14.5,3.3,33.9,10.2,52.1,24.2
				c4.6,3.4,9,7.4,13.3,11.6c4.3,4.3,8.3,9,12.1,14c7.6,9.9,13.7,21.7,18.8,32c5,10.3,9,19.4,11.7,25.8c2.7,6.4,4.3,10,4.3,10
				s0.8,1.8,2.1,5c1.4,3.1,3.3,7.7,5.9,12.8c2.5,5.1,5.7,10.7,9.5,15.5c3.8,4.8,8.4,8.4,13.1,10.7c9.5,4.5,19.4,4.4,26.7,4
				c3.7-0.2,6.7-0.6,8.8-0.9c0.9-0.1,1.7-0.2,2.3-0.3c0.2,0,0.4-0.1,0.6-0.1c0.2,0,0.4,0,0.4-0.1c0.2,2.7,0.4,5.2,0.6,7.5
				c0.1,1.8,0.2,3.4,0.3,4.9c-0.2,0-0.4,0-0.7,0c-0.2,0-0.3,0-0.5,0c-0.1,0-0.2,0-0.3,0c-0.4,0-0.9,0-1.4,0c-1.1,0-2.4,0.1-3.9,0.2
				c-1.5,0-3.2,0.2-5,0c-1.8-0.1-3.8-0.2-6-0.3c-0.5,0-1.1-0.1-1.6-0.1c-0.5-0.1-1.1-0.2-1.6-0.3c-1.1-0.2-2.2-0.3-3.4-0.5
				c-1.1-0.2-2.3-0.3-3.5-0.6c-1.2-0.3-2.4-0.7-3.6-1c-1.2-0.3-2.4-0.7-3.6-1.1c-1.2-0.5-2.4-1.1-3.6-1.6c-4.8-2-9.4-5.6-13.5-9.5
				c-1-1.1-2-2.2-2.9-3.3c-0.9-1.1-1.9-2.1-2.7-3.4c-0.8-1.2-1.7-2.4-2.5-3.6c-0.4-0.6-0.8-1.1-1.2-1.7c-0.4-0.6-0.7-1.2-1.1-1.8
				c-0.7-1.2-1.4-2.3-2-3.4c-0.3-0.5-0.6-1.1-0.9-1.6c-0.3-0.5-0.6-1.1-0.8-1.6c-1-2.1-2-3.9-2.7-5.3c-0.8-1.5-1.3-2.8-1.7-3.6
				c-0.4-0.9-0.6-1.3-0.6-1.3s-0.4-0.9-1.2-2.5c-0.8-1.6-1.9-4.2-3.3-7.3c-2.8-6.4-6.6-15.7-11.4-26.7c-1.2-2.7-2.4-5.6-3.7-8.5
				c-0.6-1.5-1.4-2.9-2-4.4c-0.7-1.4-1.4-3-2.2-4.4c-1.6-2.8-3.1-5.8-4.8-8.5c-0.9-1.4-1.7-2.8-2.6-4.1c-0.9-1.3-1.8-2.6-2.8-4
				c-3.8-5.1-7.8-10.1-12.1-14.4c-2.1-2.3-4.3-4.2-6.6-6.3c-2.3-1.9-4.5-3.9-6.8-5.6c-18.3-14.2-37.8-21.7-52.4-25.5
				c-11-2.9-19.3-3.9-22.8-4.2c-0.3,0-0.5,0-0.8-0.1c-0.7,0-1-0.1-1-0.1l-0.6-0.3c0.2-1,0.4-2.1,0.6-3.2c0.3-1.5,0.5-3.1,0.7-4.6
				l0.1,0c0,0,0.1,0,0.2,0c0.2,0,0.4,0,0.8,0c0.3,0,0.6,0,1,0C37.7,189.2,37.8,189.2,37.9,189.2z"/>
			<path id="XMLID_566_" d="M241.4,368.9c0.2,0,0.4,0,0.5,0C241.8,368.9,241.6,368.9,241.4,368.9z"/>
			<path id="XMLID_567_" class="st8" d="M241.8,356.5c-0.1,0-0.2,0-0.4,0.1c-0.2,0-0.4,0-0.6,0.1c-0.6,0.1-1.3,0.2-2.3,0.3
				c-2.1,0.3-5.2,0.6-8.8,0.9c-7.3,0.3-17.2,0.5-26.7-4c-4.7-2.3-9.3-5.9-13.1-10.7c-3.9-4.8-7-10.4-9.5-15.5
				c-2.5-5.1-4.5-9.7-5.9-12.8c-1.4-3.2-2.1-5-2.1-5s-1.6-3.7-4.3-10c-2.7-6.4-6.7-15.5-11.7-25.8c-5-10.3-11.2-22-18.8-32
				c-3.8-5-7.9-9.7-12.1-14c-4.3-4.2-8.7-8.2-13.3-11.6c-18.2-13.9-37.6-20.9-52.1-24.2c-10.4-2.4-18.4-2.9-22.1-3.1
				c-0.1,0-0.2,0-0.3,0c-0.4,0-0.7,0-1,0c-0.3,0-0.6,0-0.8,0c-0.1,0-0.2,0-0.2,0l-0.1,0c0.2-1.3,0.3-2.5,0.4-3.5
				c0.1-1.1,0.2-2.1,0.2-2.7c0-0.1,0-0.2,0-0.2s0-0.2,0-0.2c0-0.3,0-0.5,0-0.5v0c0.3,0,1,0,2.1,0.1c0.2,0,0.4,0,0.7,0
				c0.1,0,0.3,0,0.4,0c4,0.3,11.5,1,21,3.2c14.5,3.3,33.7,9.9,52,22.7c9.2,6.3,18,14.3,25.8,23.5c2,2.2,3.8,4.7,5.6,7
				c1.8,2.4,3.5,5,5.1,7.4c1.6,2.6,3.2,5.1,4.6,7.6c1.4,2.7,2.8,5.2,4.1,7.7c1.2,2.6,2.4,5.1,3.5,7.5c1,2.5,2,4.9,2.9,7.2
				c1.8,4.6,3.2,8.7,4.5,12c2.5,6.6,4.1,10.2,4.1,10.2s0.2,0.5,0.5,1.3c0.3,0.9,0.9,2.1,1.6,3.7c1.4,3.2,3.3,7.7,5.8,12.8
				c2.5,5.1,5.6,10.9,9.2,16.2c1.8,2.7,3.8,5.2,5.9,7.4c2.1,2.2,4.3,4.1,6.7,5.4c4.7,2.7,9.6,3.2,14.1,3c0.4,0,0.8,0,1.3-0.1
				c6.9,0,14.8,0,23.3,0C241.3,350.9,241.6,353.8,241.8,356.5z"/>
			<path id="XMLID_568_" d="M240.8,356.7c0.2,0,0.4-0.1,0.6-0.1C241.2,356.6,241,356.6,240.8,356.7z"/>
			<path id="XMLID_569_" class="st5" d="M241.2,347.7c0,0.1,0,0.1,0,0.2c-0.1,0-0.1,0-0.2,0c0,0,0-0.1,0-0.2
				C241,347.7,241.1,347.7,241.2,347.7z"/>
			<path id="XMLID_570_" class="st5" d="M241.2,347.7c-0.1,0-0.2,0-0.2,0c-0.3-2.4-0.6-4.8-0.9-7.1c-1.1-8.4-2.6-16.6-4.2-22.4
				c-0.8-2.9-1.5-5.2-2.1-6.8c0,0,0-0.1,0-0.1c0,0,0,0.1,0,0.1c0.6,1.5,1.4,3.8,2.1,6.7c1.6,5.8,3.1,14,4.3,22.4
				C240.6,342.9,240.9,345.3,241.2,347.7z"/>
			<path id="XMLID_571_" class="st5" d="M240.9,347.7c0,0.1,0,0.1,0,0.2c-8.6,0-16.5,0-23.3,0c0.3,0,0.6,0,0.9-0.1
				C225.2,347.7,232.8,347.7,240.9,347.7z"/>
			<path id="XMLID_572_" class="st9" d="M240.9,347.7c-8.2,0-15.7,0-22.4,0c3.7-0.3,7.2-0.7,10.3-0.8c3.6-0.2,6.7,0,8.8,0.3
				c0.9,0.2,1.7,0.3,2.2,0.3C240.6,347.6,240.9,347.7,240.9,347.7z"/>
			<path id="XMLID_573_" class="st4" d="M240,340.6c0.3,2.4,0.6,4.8,0.9,7.1c0,0-0.4-0.1-1.1-0.2c-0.6-0.1-1.3-0.2-2.2-0.3
				c-2.1-0.3-5.2-0.5-8.8-0.4c-3.6,0.1-7.9,0.7-12.4,0.9c-0.8,0-1.7,0-2.6,0l6.1-11.5l12.8-25.3l0,0l0.4-0.9
				c0.1,0.3,0.3,0.8,0.5,1.3h0c0,0,0,0.1,0,0.1c0.6,1.5,1.3,3.9,2.1,6.8C237.4,324,238.9,332.2,240,340.6z"/>
			<path id="XMLID_574_" class="st9" d="M239.8,379.7c0.4,0,0.8,0,1.1,0C240.6,379.7,240.2,379.7,239.8,379.7
				c-1.1,0.1-2.4,0.2-4,0.2c-1.5,0.1-3.2,0.2-5.1,0.1c-1.1,0-2.3,0-3.5-0.1l-0.1-0.1c1.2,0,2.4,0.1,3.5,0.1c1.9,0.1,3.6,0,5.1-0.1
				C237.4,379.8,238.7,379.8,239.8,379.7z"/>
			<path id="XMLID_575_" d="M237.6,347.2c0.9,0.1,1.7,0.2,2.2,0.3C239.3,347.5,238.5,347.4,237.6,347.2c-2.1-0.2-5.2-0.4-8.8-0.3
				c-3.1,0.1-6.5,0.5-10.3,0.8c-1.6,0-3.2,0-4.8,0l0,0c0.9,0,1.7,0,2.6,0c4.6-0.2,8.8-0.8,12.4-0.9
				C232.4,346.7,235.5,346.9,237.6,347.2z"/>
			<path id="XMLID_576_" class="st5" d="M233.8,311.3L233.8,311.3c-0.2-0.5-0.4-1-0.5-1.3C233.4,310.4,233.5,310.8,233.8,311.3z"/>
			<path id="XMLID_577_" class="st5" d="M233,309.4c0,0.1,0.1,0.2,0.1,0.3C233.1,309.6,233,309.5,233,309.4z"/>
			<path id="XMLID_578_" class="st5" d="M232.8,311L220,336.2l-6.1,11.5c0,0,0,0,0,0l5.9-11.9L232.8,311z"/>
			<path id="XMLID_579_" d="M227.3,380C227.3,380,227.2,380,227.3,380l-0.1-0.1c0,0,0,0,0.1,0L227.3,380z"/>
			<path id="XMLID_580_" d="M227.1,379.9l0.1,0.1c-0.8,0-1.7,0-2.5,0c-2.2,0-4.4-0.4-6.8-0.7c-1.2-0.2-2.4-0.2-3.6-0.5
				c-1.2-0.3-2.4-0.6-3.6-0.9c-1.2-0.3-2.5-0.5-3.7-0.9c-1.2-0.5-2.5-0.9-3.7-1.4c-4.9-1.7-9.7-4.9-14-8.5c-1-1.1-2.1-2.1-3.1-3.1
				c-1-1-2-1.9-2.9-3.2c-1.8-2.4-3.6-4.3-5-6.8c-3-4.4-5.2-8.8-6.8-11.6c-1.5-3.1-2.4-4.9-2.4-4.9s-1.8-3.5-4.6-10
				c-2.8-6.5-6.7-16-11.3-27.4c-1.2-2.9-2.4-5.8-3.6-8.9c-0.7-1.5-1.3-3-2-4.5c-0.3-0.8-0.7-1.5-1-2.3c-0.4-0.7-0.8-1.5-1.1-2.2
				c-0.8-1.5-1.5-3-2.3-4.5c-0.8-1.4-1.7-2.8-2.5-4.3c-0.4-0.7-0.9-1.4-1.3-2.2c-0.5-0.7-0.9-1.4-1.4-2c-0.9-1.4-1.8-2.7-2.8-4.1
				c-3.8-5.2-7.9-10.3-12.3-14.7c-4.4-4.4-8.9-8.5-13.6-12c-18.7-14.2-38.5-21.2-53.4-24.7c-10.7-2.5-18.9-3.2-22.7-3.5
				c3.8,0.2,12,0.9,22.7,3.4c14.9,3.4,34.8,10.3,53.5,24.5c4.7,3.4,9.2,7.5,13.6,11.9c4.4,4.4,8.5,9.5,12.3,14.7
				c0.9,1.4,1.8,2.8,2.8,4.1c0.5,0.7,0.9,1.4,1.4,2c0.4,0.7,0.9,1.5,1.3,2.2c0.8,1.4,1.7,2.9,2.5,4.3c0.8,1.5,1.5,3,2.3,4.5
				c0.4,0.7,0.8,1.5,1.1,2.2c0.3,0.8,0.7,1.5,1,2.3c0.7,1.5,1.4,3.1,2,4.6c1.3,3.1,2.5,6,3.6,8.9c4.6,11.4,8.5,20.9,11.4,27.4
				c2.8,6.5,4.6,10,4.6,10s0.9,1.8,2.4,4.9c1.6,2.9,3.8,7.3,6.7,11.6c1.4,2.4,3.2,4.4,4.9,6.8c0.9,1.2,1.9,2.2,2.9,3.2
				c1,1,2,2,3.1,3.1c4.3,3.5,9,6.8,14,8.5c1.2,0.5,2.4,1,3.7,1.4c1.2,0.4,2.5,0.6,3.7,0.9c1.2,0.3,2.4,0.6,3.6,0.9
				c1.2,0.3,2.4,0.3,3.6,0.5c2.3,0.2,4.6,0.7,6.7,0.7C225.5,379.8,226.3,379.9,227.1,379.9z"/>
			<path id="XMLID_581_" class="st5" d="M227.2,379.9C227.2,379.9,227.2,379.9,227.2,379.9l-0.2-0.4c0,0,0,0,0,0h0L227.2,379.9z"/>
			<path id="XMLID_582_" class="st5" d="M227,379.5C227,379.5,227,379.5,227,379.5L227,379.5C226.9,379.5,226.9,379.4,227,379.5
				C226.9,379.4,227,379.5,227,379.5L227,379.5L227,379.5z"/>
			<path id="XMLID_583_" class="st5" d="M226.6,378.8l0.3,0.7c0,0,0,0,0,0L226.6,378.8z"/>
			<path id="XMLID_584_" d="M213.8,347.8c1.5,0,3.1,0,4.8,0c-0.3,0-0.6,0-0.9,0.1C216.3,347.8,215,347.8,213.8,347.8L213.8,347.8z"
				/>
			<path id="XMLID_585_" d="M217.6,347.8c-0.4,0-0.8,0.1-1.3,0.1c-4.5,0.2-9.5-0.2-14.1-3c-2.3-1.4-4.6-3.3-6.7-5.4
				c-2.1-2.2-4.1-4.8-5.9-7.4c-3.6-5.3-6.7-11.1-9.2-16.2c-2.5-5.1-4.5-9.6-5.8-12.8c-0.7-1.6-1.2-2.8-1.6-3.7
				c-0.4-0.9-0.5-1.3-0.5-1.3s-1.5-3.6-4.1-10.2c-1.3-3.3-2.7-7.4-4.5-12c-0.9-2.3-1.9-4.7-2.9-7.2c-1.1-2.4-2.3-4.9-3.5-7.5
				c-1.3-2.5-2.7-5-4.1-7.7c-1.5-2.5-3-5-4.6-7.6c-1.7-2.4-3.3-5-5.1-7.4c-1.8-2.3-3.6-4.9-5.6-7c-7.8-9.1-16.6-17.2-25.8-23.5
				c-18.3-12.8-37.6-19.5-52-22.7c-9.5-2.2-17-2.9-21-3.2c4,0.2,11.5,1,21,3.1c14.5,3.2,33.7,9.8,52,22.5c9.2,6.2,18,14.3,25.8,23.4
				c2,2.2,3.8,4.7,5.6,7c1.8,2.4,3.5,5,5.2,7.4c1.6,2.6,3.2,5.1,4.6,7.6c1.4,2.7,2.8,5.2,4.1,7.7c1.2,2.6,2.4,5.1,3.5,7.5
				c1,2.5,2,5,2.9,7.2c1.8,4.6,3.3,8.7,4.6,11.9c2.5,6.6,4.1,10.2,4.1,10.2s0.2,0.5,0.5,1.3c0.3,0.9,0.9,2.1,1.6,3.7
				c1.4,3.2,3.3,7.7,5.8,12.8c2.5,5.1,5.5,10.9,9.1,16.3c1.8,2.7,3.8,5.2,5.9,7.4c2.1,2.2,4.3,4.1,6.6,5.5c3.8,2.2,7.7,3,11.5,3.1
				l0,0l0,0c0,0,0,0,0,0C215,347.8,216.3,347.8,217.6,347.8z"/>
			<path id="XMLID_586_" d="M213.8,347.7L213.8,347.7C213.8,347.8,213.8,347.8,213.8,347.7L213.8,347.7
				C213.8,347.7,213.8,347.8,213.8,347.7z"/>
			<path id="XMLID_587_" d="M213.8,347.8L213.8,347.8C213.7,347.8,213.7,347.8,213.8,347.8L213.8,347.8
				C213.8,347.8,213.8,347.8,213.8,347.8z"/>
			<path id="XMLID_588_" class="st5" d="M93.8,303.4l-0.1,0.5l-23.6-13.4L58.3,284c-3.9-2.3-7.9-4.3-11.8-6.9
				c-1.9-1.4-3.8-3-5.6-5.1c-0.9-1.1-1.7-2.2-2.4-3.7c-0.7-1.5-1-3.7-0.8-5.6c0.6-3.9,2.2-6.7,3.2-10.2c0.5-1.7,0.8-3.7,0.6-5.6
				s-0.8-3.6-1.6-4.9c-0.8-1.4-1.7-2.4-2.5-3.4c-0.9-1-1.8-2-2.7-2.9c-1.8-1.8-3.7-3.3-5.7-4.3c-3.5-1.8-7.1-2.2-10.7-1.4
				c3.6-0.8,7.2-0.4,10.7,1.4c2,1,3.9,2.5,5.7,4.3c0.9,0.9,1.8,1.9,2.7,2.9c0.9,1,1.8,2,2.5,3.4c0.8,1.3,1.4,3,1.6,5
				c0.2,2-0.1,4.1-0.6,5.8c-1,3.5-2.6,6.3-3.1,10.2c-0.2,1.9,0,4,0.7,5.4c0.7,1.5,1.6,2.6,2.4,3.6c1.7,2.1,3.6,3.7,5.5,5
				c3.9,2.6,7.9,4.6,11.8,6.8l11.8,6.6l19.8,11.1l3.8,2.7L93.8,303.4L93.8,303.4z"/>
			<polygon id="XMLID_589_" class="st5" points="93.8,303.4 93.7,303.9 89.9,301.3 93.8,303.4 			"/>
			<path id="XMLID_590_" class="st5" d="M68.9,285.8l24.8,17.7l-3.8-2.2l-21.1-14.9l-5.6-4c-1.8-1.3-3.7-2.7-5.5-4.4
				c-1.8-1.7-3.5-3.7-4.9-6.4c-0.7-1.3-1.3-2.9-1.9-4.5c-0.5-1.7-0.9-3.5-1.1-5.4l0-0.4l0.2,0.1c1.5,1,3.2-1.3,3.8-4
				c0.6-2.8,0.2-6.2-0.6-8.8c-1.7-5.3-4.3-9.3-7.1-12.5c-2.7-3.3-5.7-5.9-8.5-8.9c-2.8-2.9-5.5-6.1-7.7-10.4
				c2.2,4.3,4.9,7.5,7.7,10.3c2.8,3,5.8,5.6,8.5,8.8c2.7,3.2,5.4,7.1,7.1,12.6c0.8,2.7,1.3,6.1,0.6,9.1c-0.3,1.5-0.9,2.7-1.6,3.6
				c-0.6,0.8-1.5,1.1-2.2,0.8c0-0.1,0-0.2,0-0.3l-0.1,0.2c0.1,0.1,0.1,0.1,0.2,0.1c0.4,3.6,1.5,6.8,2.9,9.2c1.4,2.6,3.1,4.6,4.9,6.3
				c1.8,1.7,3.6,3.1,5.5,4.3L68.9,285.8z"/>
			<path id="XMLID_591_" class="st4" d="M89.9,301.3l-19.8-11.1l-11.8-6.6c-3.9-2.2-7.9-4.2-11.8-6.8c-1.9-1.3-3.8-2.9-5.5-5
				c-0.8-1.1-1.7-2.2-2.4-3.6c-0.7-1.4-1-3.5-0.7-5.4c0.5-3.9,2.2-6.6,3.1-10.2c0.5-1.7,0.8-3.7,0.6-5.8c-0.2-2-0.9-3.7-1.6-5
				c-0.8-1.4-1.6-2.4-2.5-3.4c-0.9-1-1.8-2-2.7-2.9c-1.8-1.8-3.7-3.3-5.7-4.3c-3.5-1.8-7.1-2.2-10.7-1.4c-0.5,0.1-1,0.2-1.5,0.4h0
				l0,0.1c-0.3-1.2-1.1-3.9-2-6.5c-1.1-3.4-2.4-6.7-2.4-6.7s-0.7-1.6-1.7-4c-1-2.3-2.4-5.4-3.8-8.4s-2.8-6.1-3.9-8.4
				c-0.7-1.5-1.1-2.6-1.5-3.2c-0.1-0.3-0.2-0.4-0.2-0.5c0,0,0-0.1,0-0.1s0,0,0.1,0c0,0,0.1,0,0.2-0.1c0.1,0,0.2-0.1,0.3-0.1
				c1.6-0.6,6.3-2.3,11-3.9c5.8-1.9,11.6-3.4,11.6-3.4s2.9-0.9,5.8-1.6c2.4-0.6,4.8-1.2,5.6-1.4c0.1,0,0.1,0,0.1,0c0,0,0,0,0.1,0v0
				c0,0.1,0,0.3,0,0.5c0,0,0,0.1,0,0.2c0,0.1,0,0.2,0,0.2c0,0.7-0.1,1.6-0.2,2.7c-0.2,2.2-0.7,5.2-1.2,8c-0.5,2.9-1.2,5.6-1.6,7.7
				c-0.5,2.1-0.8,3.5-0.8,3.5s-0.6,2.8-1.1,5.7c-0.5,2.3-0.8,4.7-0.9,5.5c0,0,0,0.1,0,0.1c0,0,0,0,0,0c0,0.1,0,0.1,0,0.1l-0.3,0.6
				c0,0.1,0.1,0.2,0.1,0.2c2.2,4.3,4.9,7.5,7.7,10.4c2.8,3,5.8,5.6,8.5,8.9c2.7,3.2,5.4,7.2,7.1,12.5c0.8,2.6,1.2,6,0.6,8.8
				c-0.6,2.8-2.2,5-3.8,4l-0.2-0.1l0,0.4c0.2,1.9,0.6,3.7,1.1,5.4c0.5,1.7,1.2,3.2,1.9,4.5c1.5,2.7,3.2,4.7,4.9,6.4
				c1.8,1.7,3.6,3.1,5.5,4.4l5.6,4L89.9,301.3z"/>
			<path id="XMLID_592_" class="st5" d="M50.1,261.7c0,0.1,0,0.2,0,0.3c-0.1,0-0.1,0-0.2-0.1L50.1,261.7z"/>
			<path id="XMLID_593_" d="M38.9,182c-0.2,0-0.5,0-0.7,0C38.5,182,38.7,182,38.9,182z"/>
			<path id="XMLID_594_" d="M35.9,197.2c0.2,0,0.5,0,0.8,0.1C36.4,197.2,36.1,197.2,35.9,197.2z"/>
			<path id="XMLID_595_" class="st12" d="M36.2,181.8C36.2,181.8,36.2,181.9,36.2,181.8c-0.1,0-0.1,0-0.1,0
				C36.1,181.8,36.2,181.8,36.2,181.8z"/>
			<path id="XMLID_596_" class="st5" d="M36.1,182.6c0,0.1,0,0.2,0,0.2c0,0.7-0.1,1.6-0.2,2.7c-0.1,1-0.2,2.2-0.4,3.5
				c-0.2,1.5-0.4,3-0.7,4.6c-0.2,1.1-0.4,2.2-0.6,3.2c-0.3,1.7-0.7,3.3-0.9,4.6c-0.5,2.1-0.8,3.5-0.8,3.5s-0.6,2.7-1.3,5.4
				c-0.1,0-0.2,0-0.2,0c0.5-2.9,1.1-5.7,1.1-5.7s0.3-1.4,0.8-3.5c0.5-2.1,1.1-4.8,1.6-7.7c0.5-2.8,1-5.8,1.2-8
				c0.1-1.1,0.2-2,0.2-2.7C36.1,182.8,36.1,182.7,36.1,182.6z"/>
			<path id="XMLID_597_" class="st5" d="M30.3,182.9c2.4-0.5,4.8-0.9,5.6-1c-0.8,0.2-3.2,0.7-5.6,1.4c-2.9,0.7-5.8,1.6-5.8,1.6
				s-5.8,1.5-11.6,3.4c-4.7,1.6-9.5,3.3-11,3.9c1.5-0.7,6.3-2.5,11-4.3c5.8-2.1,11.6-3.8,11.6-3.8S27.4,183.5,30.3,182.9z"/>
			<path id="XMLID_598_" class="st5" d="M31.3,210.4c0,0,0,0.1,0,0.1c-0.5,2.2-1,4.6-1.1,5.4c0.1-0.8,0.5-3.2,0.9-5.5
				C31.1,210.4,31.2,210.4,31.3,210.4z"/>
			<path id="XMLID_599_" class="st5" d="M16.8,230.3C16.8,230.3,16.8,230.3,16.8,230.3c-0.3-1.1-1.2-3.7-2.1-6.3
				c-1.2-3.4-2.5-6.5-2.5-6.5s-0.6-1.6-1.6-4c-1-2.4-2.4-5.5-3.7-8.6c-1.4-3.1-2.8-6.2-3.8-8.5c-0.6-1.5-1.1-2.6-1.4-3.3
				c0.3,0.7,0.8,1.8,1.5,3.2c1.1,2.3,2.5,5.3,3.9,8.4s2.8,6.1,3.8,8.4c1,2.4,1.7,4,1.7,4s1.3,3.3,2.4,6.7
				C15.7,226.4,16.5,229.1,16.8,230.3z"/>
		</g>
		<g id="XMLID_600_">
		</g>
	</g>
</g>
</svg>
